<svg width="450" height="450" viewBox="0 0 450 450" fill="none" xmlns="http://www.w3.org/2000/svg">
<rect width="450" height="450" rx="225" fill="#E8E8E8"/>
<path d="M142.974 269.04C142.814 265.52 142.774 262.36 142.854 259.56C143.014 256.76 143.014 254.12 142.854 251.64C142.294 251.56 141.774 251.52 141.294 251.52C140.814 251.44 140.374 251.4 139.974 251.4C137.414 251.24 134.854 251.12 132.294 251.04C129.814 250.88 127.294 250.8 124.734 250.8C122.494 250.8 120.214 250.88 117.894 251.04C115.574 251.12 113.294 251.24 111.054 251.4H108.534C106.534 251.24 105.254 250.88 104.694 250.32C104.214 249.76 104.014 248.52 104.094 246.6C104.174 242.92 104.254 239.32 104.334 235.8C104.414 232.28 104.454 228.76 104.454 225.24C104.534 223.96 104.774 222.88 105.174 222C105.654 221.04 106.334 220.12 107.214 219.24C109.454 216.6 112.134 213.4 115.254 209.64C118.454 205.8 121.534 201.84 124.494 197.76C127.534 193.6 130.214 189.48 132.534 185.4C134.854 181.24 136.374 177.56 137.094 174.36C137.414 172.92 137.814 172 138.294 171.6C138.774 171.12 139.854 170.88 141.534 170.88C146.574 170.72 151.614 170.72 156.654 170.88C161.694 171.04 166.614 170.92 171.414 170.52C172.534 170.44 173.374 170.72 173.934 171.36C174.574 171.92 174.974 172.68 175.134 173.64C175.214 178.44 175.294 183.08 175.374 187.56C175.454 191.96 175.494 196.56 175.494 201.36C175.494 204.96 175.374 208.6 175.134 212.28C174.974 215.88 174.814 219.6 174.654 223.44C176.094 223.44 177.494 223.44 178.854 223.44C180.214 223.44 181.494 223.48 182.694 223.56C184.134 223.56 185.134 223.88 185.694 224.52C186.334 225.08 186.614 226.08 186.534 227.52C186.454 230.56 186.374 233.6 186.294 236.64C186.214 239.68 186.134 242.72 186.054 245.76C185.894 247.44 185.454 248.64 184.734 249.36C184.014 250.08 182.814 250.48 181.134 250.56H178.254C177.854 250.56 177.414 250.6 176.934 250.68C176.534 250.68 176.054 250.68 175.494 250.68C175.254 254.28 175.094 257.4 175.014 260.04C174.934 262.6 174.814 265.24 174.654 267.96C174.574 269.16 174.534 270.08 174.534 270.72C174.534 271.36 174.414 271.84 174.174 272.16C174.014 272.48 173.614 272.68 172.974 272.76C172.414 272.84 171.534 272.88 170.334 272.88C166.574 273.04 162.854 273.04 159.174 272.88C155.494 272.72 151.734 272.72 147.894 272.88C146.614 272.88 145.654 272.92 145.014 273C144.454 273 144.014 272.92 143.694 272.76C143.454 272.6 143.294 272.24 143.214 271.68C143.134 271.12 143.054 270.24 142.974 269.04ZM143.334 212.4C142.294 214.24 141.134 216.2 139.854 218.28C138.574 220.28 137.214 221.96 135.774 223.32H143.094C143.094 222.6 143.094 221.76 143.094 220.8C143.094 219.84 143.094 218.84 143.094 217.8C143.094 216.76 143.094 215.76 143.094 214.8C143.174 213.84 143.254 213.04 143.334 212.4ZM258.236 249.36C258.156 250.96 258.036 252.6 257.876 254.28C257.716 255.88 257.516 257.48 257.276 259.08C257.036 261 256.476 262.76 255.596 264.36C254.796 265.96 253.756 267.36 252.476 268.56C251.196 269.76 249.756 270.76 248.156 271.56C246.556 272.28 244.916 272.68 243.236 272.76C238.996 273.08 234.796 273.24 230.636 273.24C226.476 273.24 222.356 273.28 218.276 273.36C217.476 273.36 216.676 273.32 215.876 273.24C215.156 273.16 214.436 273.12 213.716 273.12C208.356 272.96 203.876 271.44 200.276 268.56C196.756 265.68 194.476 261.72 193.436 256.68C192.796 253.4 192.276 250.2 191.876 247.08C191.556 243.96 191.316 240.72 191.156 237.36C190.996 231.28 190.916 225.2 190.916 219.12C190.996 212.96 191.076 206.8 191.156 200.64C191.156 197.84 191.436 195.16 191.996 192.6C192.556 189.96 193.316 187.36 194.276 184.8C195.396 181.92 196.916 179.44 198.836 177.36C200.836 175.28 203.356 173.72 206.396 172.68C208.476 171.96 210.596 171.4 212.756 171C214.916 170.6 217.076 170.28 219.236 170.04C222.276 169.72 225.276 169.56 228.236 169.56C231.196 169.56 234.196 169.56 237.236 169.56C240.356 169.56 243.196 170.2 245.756 171.48C248.396 172.68 250.636 174.32 252.476 176.4C254.396 178.4 255.876 180.72 256.916 183.36C258.036 186 258.676 188.76 258.836 191.64C259.316 201.24 259.556 210.88 259.556 220.56C259.556 230.16 259.116 239.76 258.236 249.36ZM230.516 212.04C230.436 211.24 230.236 210.44 229.916 209.64C229.596 208.84 229.236 208.16 228.836 207.6C227.956 206.4 226.996 205.88 225.956 206.04C224.916 206.12 224.116 206.84 223.556 208.2C223.156 209 222.836 209.84 222.596 210.72C222.356 211.52 222.236 212.36 222.236 213.24C222.316 217.08 222.396 220.84 222.476 224.52C222.636 228.12 222.876 231.8 223.196 235.56C223.276 238.6 224.396 240.12 226.556 240.12C227.596 240.12 228.396 239.8 228.956 239.16C229.516 238.44 229.876 237.16 230.036 235.32C230.436 230.76 230.716 226.6 230.876 222.84C231.036 219.08 230.916 215.48 230.516 212.04ZM302.644 269.04C302.484 265.52 302.444 262.36 302.524 259.56C302.684 256.76 302.684 254.12 302.524 251.64C301.964 251.56 301.444 251.52 300.964 251.52C300.484 251.44 300.044 251.4 299.644 251.4C297.084 251.24 294.524 251.12 291.964 251.04C289.484 250.88 286.964 250.8 284.404 250.8C282.164 250.8 279.884 250.88 277.564 251.04C275.244 251.12 272.964 251.24 270.724 251.4H268.204C266.204 251.24 264.924 250.88 264.364 250.32C263.884 249.76 263.684 248.52 263.764 246.6C263.844 242.92 263.924 239.32 264.004 235.8C264.084 232.28 264.124 228.76 264.124 225.24C264.204 223.96 264.444 222.88 264.844 222C265.324 221.04 266.004 220.12 266.884 219.24C269.124 216.6 271.804 213.4 274.924 209.64C278.124 205.8 281.204 201.84 284.164 197.76C287.204 193.6 289.884 189.48 292.204 185.4C294.524 181.24 296.044 177.56 296.764 174.36C297.084 172.92 297.484 172 297.964 171.6C298.444 171.12 299.524 170.88 301.204 170.88C306.244 170.72 311.284 170.72 316.324 170.88C321.364 171.04 326.284 170.92 331.084 170.52C332.204 170.44 333.044 170.72 333.604 171.36C334.244 171.92 334.644 172.68 334.804 173.64C334.884 178.44 334.964 183.08 335.044 187.56C335.124 191.96 335.164 196.56 335.164 201.36C335.164 204.96 335.044 208.6 334.804 212.28C334.644 215.88 334.484 219.6 334.324 223.44C335.764 223.44 337.164 223.44 338.524 223.44C339.884 223.44 341.164 223.48 342.364 223.56C343.804 223.56 344.804 223.88 345.364 224.52C346.004 225.08 346.284 226.08 346.204 227.52C346.124 230.56 346.044 233.6 345.964 236.64C345.884 239.68 345.804 242.72 345.724 245.76C345.564 247.44 345.124 248.64 344.404 249.36C343.684 250.08 342.484 250.48 340.804 250.56H337.924C337.524 250.56 337.084 250.6 336.604 250.68C336.204 250.68 335.724 250.68 335.164 250.68C334.924 254.28 334.764 257.4 334.684 260.04C334.604 262.6 334.484 265.24 334.324 267.96C334.244 269.16 334.204 270.08 334.204 270.72C334.204 271.36 334.084 271.84 333.844 272.16C333.684 272.48 333.284 272.68 332.644 272.76C332.084 272.84 331.204 272.88 330.004 272.88C326.244 273.04 322.524 273.04 318.844 272.88C315.164 272.72 311.404 272.72 307.564 272.88C306.284 272.88 305.324 272.92 304.684 273C304.124 273 303.684 272.92 303.364 272.76C303.124 272.6 302.964 272.24 302.884 271.68C302.804 271.12 302.724 270.24 302.644 269.04ZM303.004 212.4C301.964 214.24 300.804 216.2 299.524 218.28C298.244 220.28 296.884 221.96 295.444 223.32H302.764C302.764 222.6 302.764 221.76 302.764 220.8C302.764 219.84 302.764 218.84 302.764 217.8C302.764 216.76 302.764 215.76 302.764 214.8C302.844 213.84 302.924 213.04 303.004 212.4Z" fill="#4E5765"/>
<ellipse cx="326.802" cy="76.1075" rx="37.5" ry="16.1789" transform="rotate(45.5806 326.802 76.1075)" fill="#D9D9D9"/>
<ellipse cx="117.802" cy="382.108" rx="37.5" ry="16.1789" transform="rotate(45.5806 117.802 382.108)" fill="#F2F2F2"/>
<ellipse cx="140.708" cy="76.0875" rx="21.3443" ry="9.20872" transform="rotate(-8.53086 140.708 76.0875)" fill="#D9D9D9"/>
</svg>
