<svg width="322" height="59" viewBox="0 0 322 59" fill="none" xmlns="http://www.w3.org/2000/svg">
<path d="M0.728081 37.2263C0.670976 35.8558 0.742357 34.5138 0.942222 33.2004C1.17064 31.887 1.49899 30.5879 1.92727 29.303C2.44121 27.5613 3.19785 26.0053 4.19717 24.6347C5.1965 23.2357 6.40997 22.0222 7.83758 20.9943C9.63636 19.6809 11.5351 18.8529 13.5337 18.5103C15.5609 18.1677 17.5168 18.2248 19.4012 18.6816C21.2857 19.1385 23.0416 19.9665 24.6691 21.1657C26.2966 22.3648 27.6385 23.8496 28.6949 25.6198C29.009 26.1337 29.1232 26.6048 29.0376 27.0331C28.9805 27.4614 28.7521 27.8897 28.3523 28.318C27.4387 29.2316 26.5393 30.1168 25.6541 30.9733C24.769 31.8299 23.8839 32.7007 22.9988 33.5859C22.542 33.9856 22.1851 34.1712 21.9281 34.1426C21.6711 34.0855 21.4284 33.7714 21.2 33.2004C20.629 31.8585 19.6725 30.8734 18.3305 30.2453C17.531 29.8455 16.8315 29.7599 16.2319 29.9883C15.6609 30.1881 15.1755 30.5593 14.7758 31.1018C14.4046 31.6443 14.1048 32.2725 13.8764 32.9863C13.6479 33.7001 13.4909 34.3425 13.4053 34.9135C13.291 35.6559 13.2625 36.384 13.3196 37.0978C13.3767 37.8116 13.4338 38.5397 13.4909 39.282C13.4909 39.4248 13.4909 39.5533 13.4909 39.6675C13.5195 39.7531 13.548 39.8673 13.5766 40.0101C13.8906 41.5519 14.5616 42.537 15.5895 42.9653C16.6174 43.365 17.788 43.1508 19.1014 42.3228C19.4155 42.0944 19.7153 41.8517 20.0008 41.5947C20.3149 41.3378 20.629 41.0808 20.943 40.8238C21.4284 40.3956 21.8281 40.1814 22.1422 40.1814C22.4848 40.1814 22.8703 40.4384 23.2986 40.9523C24.1266 41.8945 24.9403 42.8796 25.7398 43.9075C26.5393 44.9068 27.3387 45.9347 28.1382 46.9911C28.6521 47.6478 28.8805 48.2046 28.8234 48.6614C28.7949 49.0897 28.5094 49.6179 27.9669 50.2461C26.5393 51.845 24.9261 53.1013 23.1273 54.0149C21.3285 54.9286 19.4726 55.4711 17.5596 55.6424C15.6466 55.8423 13.7479 55.6567 11.8634 55.0857C10.0075 54.5146 8.30869 53.5153 6.76687 52.0877C4.79677 50.4316 3.32633 48.5472 2.35556 46.4343C1.41333 44.3215 0.899394 41.9659 0.813737 39.3677C0.785185 39.1964 0.770909 39.0251 0.770909 38.8537C0.770909 38.6539 0.756633 38.4397 0.728081 38.2113V37.2263ZM58.1334 50.9313C57.3054 52.416 56.2489 53.4439 54.9641 54.0149C53.6792 54.586 52.2659 54.9143 50.7241 55C48.8396 55.1428 46.9409 55.1713 45.0279 55.0857C43.1149 55.0286 41.1876 55.0286 39.2461 55.0857C38.0184 55.1142 36.9191 54.8572 35.9483 54.3147C35.0061 53.7723 34.1924 53.0727 33.5071 52.2162C32.8219 51.331 32.2794 50.3603 31.8796 49.3038C31.5085 48.2474 31.28 47.2053 31.1944 46.1774C30.9089 43.522 30.7661 40.8952 30.7661 38.297C30.7661 35.6702 30.8375 33.0291 30.9802 30.3737C31.0373 28.7463 31.2658 27.1902 31.6655 25.7055C32.0938 24.2207 32.8504 22.8217 33.9354 21.5083C34.4779 20.823 35.1346 20.2948 35.9055 19.9236C36.6764 19.5525 37.4901 19.2812 38.3467 19.1099C39.2033 18.91 40.0741 18.7815 40.9592 18.7244C41.8443 18.6673 42.6724 18.6102 43.4433 18.5531C44.5854 18.4675 45.7132 18.4389 46.8267 18.4675C47.9402 18.4675 49.0823 18.4675 50.253 18.4675C51.5093 18.4675 52.6656 18.6673 53.7221 19.0671C54.7785 19.4668 55.6922 20.0378 56.4631 20.7802C57.234 21.494 57.8478 22.3791 58.3047 23.4356C58.7615 24.4634 59.0328 25.6055 59.1184 26.8618C59.3468 30.0882 59.5039 33.2147 59.5895 36.2412C59.6752 39.2392 59.6038 42.3371 59.3754 45.5349C59.3183 46.5343 59.2041 47.4765 59.0328 48.3616C58.8615 49.2467 58.5617 50.1033 58.1334 50.9313ZM48.2829 31.7871C48.1687 30.7877 47.826 30.1025 47.255 29.7313C46.7125 29.3601 46.1129 29.2459 45.4562 29.3887C44.8281 29.5029 44.257 29.8455 43.7431 30.4166C43.2291 30.9876 42.9722 31.7014 42.9722 32.558C43.0007 33.8714 43.015 35.1848 43.015 36.4982C43.015 37.783 43.0293 39.1107 43.0578 40.4812C43.0578 41.8803 43.3291 42.8939 43.8716 43.522C44.4426 44.1216 45.0565 44.4071 45.7132 44.3786C46.3699 44.35 46.9695 44.036 47.512 43.4364C48.083 42.8082 48.3685 41.9516 48.3685 40.8667C48.3971 39.4105 48.3971 37.8972 48.3685 36.3269C48.3685 34.7565 48.34 33.2432 48.2829 31.7871ZM89.1712 39.8816C88.7143 41.5947 88.2575 43.3222 87.8007 45.0638C87.3438 46.8055 86.8727 48.5615 86.3873 50.3317C86.2731 50.7029 86.1732 51.0027 86.0875 51.2311C86.0019 51.431 85.8877 51.588 85.7449 51.7022C85.6307 51.7879 85.4451 51.845 85.1881 51.8735C84.9597 51.9021 84.6456 51.9164 84.2459 51.9164C83.4179 51.9164 82.5899 51.9306 81.7619 51.9592C80.9339 51.9592 80.0916 51.9449 79.235 51.9164C78.6354 51.9164 78.2214 51.845 77.993 51.7022C77.7931 51.5595 77.6218 51.1883 77.479 50.5887C77.2506 49.9034 77.0508 49.2039 76.8794 48.4901C76.7367 47.7763 76.5796 47.0625 76.4083 46.3487C76.1514 45.435 75.8944 44.5356 75.6374 43.6505C75.3805 42.7654 75.1378 41.866 74.9093 40.9523C74.8237 40.6668 74.6381 40.4241 74.3526 40.2242C74.4097 40.624 74.4525 41.038 74.4811 41.4663C74.5382 41.8945 74.5667 42.3228 74.5667 42.7511C74.6238 44.4642 74.6666 46.1631 74.6952 47.8477C74.7238 49.5323 74.738 51.2311 74.738 52.9442C74.738 53.3725 74.7095 53.7294 74.6524 54.0149C74.5953 54.2719 74.4811 54.4718 74.3097 54.6145C74.167 54.7288 73.9528 54.8144 73.6673 54.8715C73.4104 54.9001 73.0534 54.9143 72.5966 54.9143C71.1119 54.8572 69.6272 54.8287 68.1425 54.8287C66.6863 54.8287 65.2159 54.8287 63.7312 54.8287C63.2743 54.8287 62.9031 54.8144 62.6176 54.7859C62.3607 54.7288 62.1465 54.6288 61.9752 54.4861C61.8324 54.3433 61.7325 54.1434 61.6754 53.8865C61.6183 53.6295 61.5897 53.2869 61.5897 52.8586C61.6183 50.2603 61.6468 47.6906 61.6754 45.1495C61.7325 42.6084 61.7753 40.0387 61.8039 37.4404C61.8324 35.7558 61.8324 34.0998 61.8039 32.4723C61.8039 30.8163 61.8039 29.1603 61.8039 27.5042C61.7753 26.4193 61.7325 25.3343 61.6754 24.2493C61.6468 23.1358 61.6326 22.0222 61.6326 20.9087C61.6326 20.1378 61.7753 19.6238 62.0609 19.3669C62.3464 19.1099 62.8746 18.9671 63.6455 18.9386C65.4443 18.8815 67.2145 18.8387 68.9562 18.8101C70.7264 18.753 72.511 18.6959 74.3097 18.6388C74.8237 18.6388 75.2377 18.6673 75.5518 18.7244C75.8944 18.753 76.1656 18.8529 76.3655 19.0242C76.5939 19.167 76.7795 19.3811 76.9223 19.6667C77.0936 19.9522 77.2649 20.3519 77.4362 20.8659C78.0073 22.6646 78.564 24.4492 79.1065 26.2194C79.649 27.9896 80.2058 29.7599 80.7768 31.5301C80.8625 31.7871 80.9481 32.0298 81.0338 32.2582C81.1194 32.4866 81.2337 32.7721 81.3764 33.1147C81.6619 32.2582 81.9189 31.473 82.1473 30.7592C82.4043 30.0454 82.6613 29.3316 82.9182 28.6178C83.4036 27.1902 83.8747 25.7768 84.3316 24.3778C84.7884 22.9787 85.231 21.5797 85.6592 20.1806C85.9162 19.5525 86.1589 19.1527 86.3873 18.9814C86.6157 18.8101 87.0583 18.7244 87.715 18.7244C89.8279 18.6959 91.9264 18.6816 94.0108 18.6816C96.1236 18.6816 98.2222 18.6673 100.307 18.6388C100.906 18.6388 101.363 18.7673 101.677 19.0242C102.02 19.2527 102.262 19.6809 102.405 20.3091C102.462 20.5946 102.505 20.8944 102.534 21.2085C102.562 21.494 102.591 21.8081 102.619 22.1507C102.619 25.0059 102.619 27.8183 102.619 30.5879C102.619 33.3574 102.605 36.1556 102.576 38.9822C102.576 40.781 102.534 42.5798 102.448 44.3786C102.391 46.1488 102.319 47.9333 102.234 49.7321C102.205 50.2175 102.22 50.7314 102.277 51.2739C102.334 51.7879 102.362 52.3161 102.362 52.8586C102.362 53.344 102.334 53.7437 102.277 54.0578C102.248 54.3433 102.148 54.5717 101.977 54.743C101.806 54.8858 101.563 54.9714 101.249 55C100.963 55.0571 100.578 55.0857 100.092 55.0857C99.2358 55.0857 98.365 55.0571 97.4798 55C96.6233 54.9714 95.781 54.9572 94.953 54.9572C94.4676 54.9286 94.0108 54.9286 93.5825 54.9572C93.1827 54.9857 92.7402 55.0143 92.2548 55.0428C91.6838 55.0999 91.2269 55.1142 90.8843 55.0857C90.5417 55.0571 90.2704 54.9714 90.0706 54.8287C89.8992 54.6574 89.7708 54.4147 89.6851 54.1006C89.628 53.758 89.5994 53.3011 89.5994 52.7301C89.5423 50.9313 89.4995 49.1468 89.471 47.3766C89.4424 45.6063 89.4139 43.8504 89.3853 42.1087C89.3567 41.709 89.3425 41.3378 89.3425 40.9952C89.371 40.624 89.3853 40.2671 89.3853 39.9244C89.3282 39.8959 89.2568 39.8816 89.1712 39.8816ZM118.843 51.1026C118.843 51.4738 118.829 51.8593 118.8 52.259C118.772 52.6302 118.729 52.9871 118.672 53.3297C118.529 53.9007 118.301 54.3147 117.987 54.5717C117.672 54.8001 117.23 54.9143 116.659 54.9143H107.451C106.451 54.9143 105.781 54.743 105.438 54.4004C105.124 54.0578 104.952 53.3582 104.924 52.3018C104.867 47.3908 104.853 42.6083 104.881 37.9543C104.938 33.2718 104.881 28.5892 104.71 23.9067C104.681 23.3356 104.653 22.7789 104.624 22.2364C104.624 21.6939 104.624 21.1371 104.624 20.5661C104.653 19.8237 104.795 19.3383 105.052 19.1099C105.338 18.8529 105.852 18.7244 106.594 18.7244C108.393 18.7244 110.092 18.7244 111.691 18.7244C113.318 18.6959 115.017 18.6816 116.787 18.6816C117.587 18.6816 118.101 18.8101 118.329 19.0671C118.586 19.2955 118.715 19.7952 118.715 20.5661C118.658 25.7911 118.672 30.9305 118.757 35.9842C118.872 41.038 118.9 46.0774 118.843 51.1026ZM120.764 37.2263C120.707 35.8558 120.779 34.5138 120.979 33.2004C121.207 31.887 121.535 30.5879 121.964 29.303C122.478 27.5613 123.234 26.0053 124.233 24.6347C125.233 23.2357 126.446 22.0222 127.874 20.9943C129.673 19.6809 131.571 18.8529 133.57 18.5103C135.597 18.1677 137.553 18.2248 139.438 18.6816C141.322 19.1385 143.078 19.9665 144.705 21.1657C146.333 22.3648 147.675 23.8496 148.731 25.6198C149.045 26.1337 149.16 26.6048 149.074 27.0331C149.017 27.4614 148.788 27.8897 148.389 28.318C147.475 29.2316 146.576 30.1168 145.69 30.9733C144.805 31.8299 143.92 32.7007 143.035 33.5859C142.578 33.9856 142.221 34.1712 141.964 34.1426C141.707 34.0855 141.465 33.7714 141.236 33.2004C140.665 31.8585 139.709 30.8734 138.367 30.2453C137.567 29.8455 136.868 29.7599 136.268 29.9883C135.697 30.1881 135.212 30.5593 134.812 31.1018C134.441 31.6443 134.141 32.2725 133.913 32.9863C133.684 33.7001 133.527 34.3425 133.442 34.9135C133.327 35.6559 133.299 36.384 133.356 37.0978C133.413 37.8116 133.47 38.5397 133.527 39.282C133.527 39.4248 133.527 39.5533 133.527 39.6675C133.556 39.7531 133.584 39.8673 133.613 40.0101C133.927 41.5519 134.598 42.537 135.626 42.9653C136.654 43.365 137.824 43.1508 139.138 42.3228C139.452 42.0944 139.752 41.8517 140.037 41.5947C140.351 41.3378 140.665 41.0808 140.979 40.8238C141.465 40.3956 141.864 40.1814 142.179 40.1814C142.521 40.1814 142.907 40.4384 143.335 40.9523C144.163 41.8945 144.977 42.8796 145.776 43.9075C146.576 44.9068 147.375 45.9347 148.174 46.9911C148.688 47.6478 148.917 48.2046 148.86 48.6614C148.831 49.0897 148.546 49.6179 148.003 50.2461C146.576 51.845 144.962 53.1013 143.164 54.0149C141.365 54.9286 139.509 55.4711 137.596 55.6424C135.683 55.8423 133.784 55.6567 131.9 55.0857C130.044 54.5146 128.345 53.5153 126.803 52.0877C124.833 50.4316 123.363 48.5472 122.392 46.4343C121.45 44.3215 120.936 41.9659 120.85 39.3677C120.821 39.1964 120.807 39.0251 120.807 38.8537C120.807 38.6539 120.793 38.4397 120.764 38.2113V37.2263Z" fill="#FFC700"/>
<path d="M173.748 36.7123C175.662 36.6326 177.457 36.5728 179.132 36.5329C180.807 36.493 182.442 36.4332 184.037 36.3534C184.795 36.2737 185.532 36.1939 186.25 36.1141C187.008 36.0344 187.766 35.9746 188.523 35.9347C189.48 35.8948 190.099 36.0344 190.378 36.3534C190.697 36.6326 190.856 37.2308 190.856 38.148C190.936 40.3812 190.976 42.5746 190.976 44.7281C191.016 46.8815 191.076 49.0948 191.155 51.368C191.195 53.1227 190.338 54.0798 188.583 54.2393C187.746 54.319 186.868 54.319 185.951 54.2393C182.043 54.1994 178.155 54.1396 174.286 54.0598C170.458 53.9801 166.59 53.9202 162.682 53.8804C161.445 53.8804 160.209 53.9202 158.973 54C157.737 54.0798 156.5 54.1595 155.264 54.2393C154.945 54.2393 154.606 54.2393 154.247 54.2393C153.928 54.2792 153.609 54.2592 153.29 54.1795C152.492 54.0598 151.954 53.8205 151.675 53.4616C151.396 53.0628 151.256 52.4646 151.256 51.6671C151.216 49.5933 151.196 47.5595 151.196 45.5655C151.236 43.5317 151.236 41.4978 151.196 39.464C151.196 37.6694 151.815 36.154 153.051 34.9178C155.324 32.4054 157.517 29.893 159.631 27.3806C161.744 24.8682 163.938 22.3159 166.211 19.7238C165.932 19.6839 165.653 19.6241 165.373 19.5443C165.134 19.4645 164.875 19.4446 164.596 19.4845C163.399 19.5642 162.183 19.6241 160.947 19.6639C159.75 19.7038 158.554 19.7636 157.358 19.8434C156.879 19.8434 156.421 19.8633 155.982 19.9032C155.543 19.9431 155.124 19.9431 154.726 19.9032C153.808 19.8633 153.19 19.7038 152.871 19.4247C152.552 19.1056 152.373 18.5274 152.333 17.6899C152.293 15.4567 152.253 13.2434 152.213 11.05C152.213 8.85666 152.193 6.6633 152.153 4.46994C152.114 3.75211 152.213 3.25362 152.453 2.97447C152.692 2.69531 153.19 2.55574 153.948 2.55574C154.865 2.51586 155.763 2.51586 156.64 2.55574C157.557 2.55574 158.494 2.57568 159.451 2.61556C160.488 2.61556 161.525 2.61556 162.562 2.61556C163.599 2.57568 164.636 2.57568 165.673 2.61556C166.47 2.61556 167.308 2.6355 168.185 2.67537C169.062 2.67537 169.9 2.67537 170.697 2.67537C171.016 2.67537 171.335 2.69531 171.654 2.73519C172.013 2.73519 172.332 2.73519 172.612 2.73519H188.523H190.079C190.876 2.81495 191.395 2.99441 191.634 3.27356C191.873 3.51284 191.993 4.03127 191.993 4.82886C191.993 5.46692 191.953 6.14487 191.873 6.8627C191.833 7.54065 191.793 8.21859 191.754 8.89654C191.714 10.1328 191.674 11.3292 191.634 12.4857C191.594 13.6422 191.554 14.7987 191.514 15.9552C191.554 16.6331 191.435 17.2114 191.155 17.6899C190.916 18.1286 190.557 18.5673 190.079 19.0059C187.566 21.638 185.074 24.27 182.601 26.902C180.129 29.5341 177.636 32.1661 175.124 34.7981C174.925 34.9975 174.725 35.2567 174.526 35.5758C174.366 35.8549 174.107 36.2338 173.748 36.7123ZM233.007 48.3172C231.85 50.3909 230.375 51.8266 228.58 52.6242C226.786 53.4218 224.811 53.8804 222.658 54C220.026 54.1994 217.374 54.2393 214.702 54.1196C212.03 54.0399 209.338 54.0399 206.627 54.1196C204.912 54.1595 203.376 53.8006 202.02 53.0429C200.704 52.2852 199.568 51.3081 198.611 50.1118C197.654 48.8755 196.896 47.5196 196.338 46.0441C195.819 44.5686 195.5 43.113 195.381 41.6773C194.982 37.9685 194.782 34.2996 194.782 30.6706C194.782 27.0017 194.882 23.3129 195.081 19.6041C195.161 17.331 195.48 15.1576 196.039 13.0839C196.637 11.0101 197.694 9.05606 199.209 7.22161C199.967 6.26451 200.884 5.52674 201.961 5.00831C203.037 4.48988 204.174 4.11103 205.37 3.87175C206.567 3.5926 207.783 3.41314 209.019 3.33338C210.256 3.25362 211.412 3.17387 212.489 3.09411C214.084 2.97447 215.659 2.93459 217.214 2.97447C218.77 2.97447 220.365 2.97447 222 2.97447C223.755 2.97447 225.37 3.25362 226.845 3.81193C228.321 4.37024 229.597 5.16783 230.674 6.20469C231.75 7.20167 232.608 8.43793 233.246 9.91346C233.884 11.3491 234.263 12.9443 234.383 14.699C234.702 19.2053 234.921 23.5721 235.041 27.7993C235.16 31.9866 235.06 36.3135 234.741 40.78C234.662 42.1758 234.502 43.4918 234.263 44.7281C234.024 45.9643 233.605 47.1607 233.007 48.3172ZM219.248 21.5781C219.089 20.1824 218.61 19.2253 217.813 18.7068C217.055 18.1884 216.218 18.0289 215.3 18.2283C214.423 18.3878 213.625 18.8664 212.908 19.6639C212.19 20.4615 211.831 21.4585 211.831 22.6549C211.871 24.4893 211.891 26.3238 211.891 28.1582C211.891 29.9528 211.911 31.8072 211.95 33.7214C211.95 35.6755 212.329 37.0912 213.087 37.9685C213.885 38.806 214.742 39.2048 215.659 39.1649C216.576 39.125 217.414 38.6864 218.172 37.8489C218.969 36.9715 219.368 35.7752 219.368 34.2598C219.408 32.2259 219.408 30.1123 219.368 27.919C219.368 25.7256 219.328 23.612 219.248 21.5781ZM255.72 35.9347C255.72 38.5268 255.72 41.0991 255.72 43.6513C255.76 46.2036 255.76 48.7359 255.72 51.2483C255.72 52.2453 255.541 52.8834 255.182 53.1625C254.863 53.4018 254.205 53.5414 253.208 53.5813C251.453 53.661 249.698 53.7208 247.944 53.7607C246.189 53.7607 244.394 53.8006 242.56 53.8804C241.722 53.9202 241.025 53.9003 240.466 53.8205C239.948 53.7408 239.529 53.5813 239.21 53.342C238.891 53.0628 238.652 52.684 238.492 52.2054C238.373 51.687 238.313 51.029 238.313 50.2314C238.233 47.1208 238.153 44.0701 238.074 41.0791C238.034 38.0882 237.994 35.0972 237.954 32.1063C237.874 27.8791 237.794 23.6918 237.715 19.5443C237.675 15.357 237.615 11.1298 237.535 6.8627C237.535 6.54366 237.535 6.20469 237.535 5.84577C237.575 5.44698 237.635 5.02825 237.715 4.58958C237.874 3.51284 238.532 3.01435 239.689 3.09411C241.882 3.13399 244.055 3.1938 246.209 3.27356C248.362 3.31344 250.536 3.2935 252.729 3.21374C253.726 3.21374 254.504 3.41314 255.062 3.81193C255.62 4.17085 256.099 4.76904 256.498 5.6065C257.774 8.79684 259.09 11.9473 260.446 15.0579C261.802 18.1286 263.138 21.2192 264.454 24.3298C264.573 24.7286 264.733 25.0875 264.932 25.4066C265.132 25.6857 265.411 25.9848 265.77 26.3038C265.65 25.1473 265.55 24.0108 265.471 22.8942C265.431 21.7775 265.371 20.641 265.291 19.4845C265.132 17.331 264.992 15.1576 264.872 12.9642C264.793 10.7709 264.673 8.55757 264.513 6.32433C264.513 6.08505 264.494 5.84578 264.454 5.6065C264.454 5.36722 264.494 5.12795 264.573 4.88867C264.693 4.41012 264.892 4.01133 265.172 3.6923C265.451 3.33338 265.889 3.15393 266.488 3.15393C268.761 3.11405 271.054 3.07417 273.367 3.03429C275.68 2.99441 277.973 2.97447 280.246 2.97447C281.163 2.97447 281.781 3.17386 282.1 3.57266C282.459 3.93157 282.639 4.60952 282.639 5.6065C282.639 7.95938 282.599 10.2923 282.519 12.6053C282.479 14.9183 282.459 17.2712 282.459 19.6639C282.379 20.7008 282.379 21.7177 282.459 22.7147C282.539 23.7117 282.579 24.7286 282.579 25.7655C282.619 32.9039 282.619 40.0622 282.579 47.2405C282.579 48.038 282.519 48.8356 282.399 49.6332C282.32 50.3909 282.24 51.1686 282.16 51.9662C282.04 52.6441 281.821 53.1227 281.502 53.4018C281.223 53.6411 280.704 53.8006 279.947 53.8804C279.309 53.9601 278.671 54 278.033 54C277.394 53.9601 276.756 53.9402 276.118 53.9402H265.351C264.753 53.9402 264.274 53.9202 263.915 53.8804C263.596 53.8405 263.317 53.7408 263.078 53.5813C262.878 53.4218 262.699 53.2024 262.539 52.9233C262.38 52.6042 262.181 52.1855 261.941 51.6671C261.024 49.2743 260.127 46.9214 259.249 44.6084C258.372 42.2556 257.495 39.8827 256.617 37.49C256.538 37.2507 256.418 37.0114 256.258 36.7722C256.099 36.5329 255.92 36.2537 255.72 35.9347ZM299.858 22.3558C301.692 22.5552 303.507 22.6748 305.301 22.7147C307.136 22.7147 308.95 22.7347 310.745 22.7745C311.742 22.8144 312.4 22.9939 312.719 23.3129C313.038 23.5921 313.237 24.1902 313.317 25.1075C313.397 26.5032 313.436 27.8791 313.436 29.235C313.476 30.5909 313.516 31.9866 313.556 33.4223C313.556 34.6187 312.978 35.2966 311.821 35.4561C311.223 35.5359 310.645 35.5957 310.087 35.6356C309.528 35.6356 308.95 35.6356 308.352 35.6356C306.956 35.7154 305.58 35.7353 304.224 35.6954C302.908 35.6555 301.552 35.6356 300.157 35.6356V37.1909C302.31 37.3504 304.444 37.4302 306.557 37.4302C308.711 37.3903 310.864 37.3903 313.018 37.4302C313.815 37.4302 314.613 37.4501 315.411 37.49C316.208 37.5299 316.986 37.5897 317.743 37.6694C318.74 37.7891 319.478 38.0882 319.957 38.5667C320.435 39.0453 320.675 39.7631 320.675 40.7202C320.714 44.1897 320.714 47.6592 320.675 51.1287C320.635 53.0828 319.558 54.0598 317.444 54.0598H290.107C288.791 54.0598 287.814 53.7607 287.176 53.1625C286.538 52.5643 286.119 51.6272 285.92 50.351C285.8 49.1945 285.681 48.038 285.561 46.8815C285.481 45.7251 285.461 44.5486 285.501 43.3522C285.581 37.6495 285.641 31.9667 285.681 26.3038C285.76 20.641 285.84 14.9383 285.92 9.19564C285.92 8.99624 285.92 8.79684 285.92 8.59744C285.92 8.35817 285.96 8.11889 286.039 7.87962C286.199 6.16481 286.638 4.94849 287.355 4.23067C288.113 3.51284 289.369 3.11405 291.124 3.03429C293.716 2.99441 296.249 2.99441 298.721 3.03429C301.233 3.03429 303.786 3.01435 306.378 2.97447C307.494 2.97447 308.631 2.95453 309.788 2.91465C310.984 2.83489 312.16 2.79501 313.317 2.79501C314.114 2.79501 314.892 2.81495 315.65 2.85483C316.447 2.89471 317.225 2.95453 317.983 3.03429C318.621 3.07417 319.079 3.27356 319.359 3.63247C319.678 3.99139 319.897 4.39018 320.017 4.82886C320.136 5.14789 320.196 5.5068 320.196 5.9056C320.236 6.30439 320.276 6.68324 320.316 7.04216V16.3739C320.276 17.65 320.017 18.5473 319.538 19.0658C319.059 19.5842 318.162 19.8434 316.846 19.8434C311.941 19.8035 306.996 19.6839 302.011 19.4845H299.858V22.3558Z" fill="#FB1A1A"/>
</svg>
